<svg height="113.647" viewBox="0 0 106.543 106.544" width="113.646" xmlns="http://www.w3.org/2000/svg"><g transform="translate(-220.51284 -644.92259)"><ellipse cx="273.751" cy="698.051" fill="#848484" rx="45.962" ry="46.214"/><path d="m264.76536 743.25913c-19.08071-4.2574-33.68002-19.53376-36.91808-38.63015-2.40785-14.20034 3.12135-29.89654 14.1166-40.07392 7.47763-6.92141 13.64178-10.10571 23.51376-12.14682 9.54242-1.97297 17.7968-.85342 27.63129 3.74766 13.68531 6.40269 22.94965 18.2559 26.07398 33.36019 1.37261 6.63572 1.43084 8.85674.3882 14.80388-3.51327 20.0391-17.61025 34.77019-37.32371 39.00258-7.24019 1.55442-10.28065 1.54339-17.48204-.0634zm34.51846-11.73387c4.81089-3.45415 13.31862-14.12525 13.28253-16.66007-.0156-1.09744-.587-.8221-1.93837.93408-1.30942 1.70166-2.69201 2.39275-4.36611 2.18238-1.34743-.16931-2.74334.16687-3.102.74707-.35867.58021-1.04932 1.05491-1.53481 1.05491-.48547 0 .21349-2.4781 1.55328-5.5069 4.31201-9.74804 2.96516-11.05863-3.49411-3.40002-2.33715 2.7711-4.48876 4.79901-4.78136 4.50648-.2926-.29252-.0715-1.10301.49125-1.80106 1.39055-1.72478 2.61195-7.74379 1.5714-7.74379-.46012 0-2.15022 1.2178-3.75576 2.70621-1.60555 1.48842-2.67126 2.04872-2.36825 1.24511 2.5657-6.80438 1.45598-7.81768-3.50915-3.20425-2.40335 2.23309-2.80397 2.37114-2.16812.74707.429-1.0957 1.0027-3.11279 1.27489-4.48241.40515-2.03863.25544-2.26444-.82554-1.24512-1.69951 1.60255-4.60858 1.60255-5.20286 0-.33988-.91654-.93425-.79482-2.25235.46125-1.5063 1.43542-1.60437 2.11506-.61762 4.28026.64516 1.41565 1.17302 3.72944 1.17302 5.14177 0 2.32194.28626 2.51064 2.98894 1.97022 3.47024-.69389 3.81504.28853.99632 2.83886-1.09595.9916-1.99263 2.19021-1.99263 2.66359 0 .99919 5.02785-.0164 6.42623-1.29806 2.44572-2.24154 2.48971-.49076.0675 2.68426-1.4903 1.95346-2.48353 3.77782-2.20716 4.05413.27637.2763 2.417-.4224 4.75696-1.5527 2.33995-1.13029 4.39153-1.91804 4.55905-1.75055.16752.16748-1.01293 1.8453-2.62322 3.72847-4.48009 5.2393-3.8017 6.34947 2.064 3.37776l5.0728-2.57-3.12803 4.5454c-3.68144 5.34959-2.56847 5.76685 3.58933 1.34565zm-28.73983-35.84706c1.69855-1.69816 1.48865-2.56181-.79903-3.28773-1.51179-.47971-1.85162-1.20247-1.40393-2.98581.50483-2.01095.28792-2.27375-1.4925-1.80826-2.30881.60363-2.67641-.70264-1.05181-3.73757.85746-1.60181.7004-1.9267-.93145-1.9267-1.07955 0-3.11287.43715-4.51847.97144-3.42627 1.30237-3.2705-.0881.48952-4.3696l3.04517-3.46747-3.79241.57867-3.7924.57867 3.98526-3.6808c4.39137-4.05588 4.76567-3.88015-4.23434-1.98798-1.5293.32151-2.26756.21149-1.67088-.24903 1.50401-1.16081 2.54485-4.31137 1.42433-4.31137-.51219 0-2.51002.75269-4.43964 1.67265-5.10086 2.43189-5.65065.67538-1.04263-3.33105 3.95591-3.43943 3.96102-3.45303.69425-1.84639-6.29297 3.09494-16.55421 15.45789-12.83004 15.45789.7511 0 2.17713-.89648 3.16895-1.99218 3.58052-3.95554 4.61611-2.23083 1.74622 2.90823-1.50513 2.69523-2.39497 5.24197-1.97741 5.65945.41756.41746 2.38905-.77919 4.3811-2.65921 2.35162-2.21938 3.39319-2.77442 2.96977-1.58254-2.40868 6.78028-1.84084 8.10282 1.9502 4.54212l2.22411-2.08897-.54752 4.08115c-.63684 4.74691.73168 5.34492 4.38313 1.91534 1.89299-1.77799 2.30592-1.8777 2.30592-.55684 0 .88494-.44834 1.88601-.99631 2.22461-1.22625.75768-1.33137 5.4785-.122 5.4785.48088 0 1.43246-.67236 2.11463-1.49414 1.72331-2.07599 2.98895-1.8651 2.98895.49805 0 1.58972.66421 1.99218 3.28784 1.99218 1.80831 0 3.82585-.53789 4.48342-1.19531z"/><path d="m264.03468 745.58608c-20.07153-4.45486-35.42895-20.43974-38.83515-40.42182-.95923-28.94788 14.52783-49.29775 39.58441-54.64275 10.03793-2.06447 18.72095-.893 29.06613 3.92148 14.39593 6.69965 24.14135 19.10261 27.42792 34.90745 1.44388 6.94347 1.50513 9.26752.40835 15.49047-3.69569 20.96854-18.52469 36.38284-39.26183 40.81154-7.61615 1.62651-10.8145 1.61497-18.38983-.0664z" fill="none" stroke="#fff" stroke-width="5.748421"/></g></svg>