<svg height="102.548" viewBox="0 0 132.191 96.139" width="141.004" xmlns="http://www.w3.org/2000/svg"><g transform="translate(-224.171929 -462.29548)"><path d="m338.33672 486.33017h-18.02602v-24.03469h-84.12142c-6.60955 0-12.01735 5.4078-12.01735 12.01734v66.09541h12.01735c0 9.97439 8.05162 18.02601 18.02601 18.02601 9.9744 0 18.02602-8.05162 18.02602-18.02601h36.05204c0 9.97439 8.05162 18.02601 18.02602 18.02601s18.02602-8.05162 18.02602-18.02601h12.01735v-30.04337zm-84.12143 63.09107c-4.98719 0-9.013-4.02582-9.013-9.01301 0-4.9872 4.02581-9.01301 9.013-9.01301 4.9872 0 9.01301 4.02581 9.01301 9.01301 0 4.98719-4.02581 9.01301-9.01301 9.01301zm81.11709-54.07806 11.777 15.02168h-26.79868v-15.02168zm-9.01301 54.07806c-4.9872 0-9.01301-4.02582-9.01301-9.01301 0-4.9872 4.02581-9.01301 9.01301-9.01301s9.01301 4.02581 9.01301 9.01301c0 4.98719-4.02581 9.01301-9.01301 9.01301z" fill="#ffcf57"/><g fill="#fff"><g fill="#fff" transform="matrix(.12693368551 0 0 .12693368551 224.23106390109 445.59208743543)"><path d="m454.286 263.076h53.571v185h-53.571z"/><g fill-rule="evenodd"><path d="m227.85714 325.21935-30.71428-37.85715c36.36885-26.37334 68.46099-53.00353 102.87527-53.74492 23.13832-.49846 45.06611 7.15429 64.74964 26.1287 48.96913 59.06072 6.33473 144.04635-38.3392 187.25908l101.78572.35714v47.85714l-225.71429.00001.35714-49.28572 55.35715-.35714c10.48416-9.71546 19.72815-19.76696 28.59686-30.17685 29.35758-31.40625 52.33243-85.67956 36.93264-113.45321-28.64188-40.06572-75.28248 5.89552-95.88665 23.27292z"/><path d="m288.57143 528.25506c51.55373 37.48304 115.53839 35.07867 150.71429.17857l21.01016.21107.0613 30.86036c-54.69185 53.98989-146.47247 44.99597-194.46429-.35715l-.0893-30.98213z"/></g></g></g></g></svg>