<svg xmlns="http://www.w3.org/2000/svg" xmlns:svg="http://www.w3.org/2000/svg" id="svg4259" width="141.004" height="102.548" version="1.1" viewBox="0 0 132.191 96.139"><metadata id="metadata4264"/><g id="layer1" transform="translate(-259.61888,-838.57854)"><g id="g5063" transform="translate(35.446951,376.28306)"><path style="fill:#ffcf57;fill-opacity:1;stroke:none;stroke-opacity:1" id="path4968" d="m 338.33672,486.33017 -18.02602,0 0,-24.03469 -84.12142,0 c -6.60955,0 -12.01735,5.4078 -12.01735,12.01734 l 0,66.09541 12.01735,0 c 0,9.97439 8.05162,18.02601 18.02601,18.02601 9.9744,0 18.02602,-8.05162 18.02602,-18.02601 l 36.05204,0 c 0,9.97439 8.05162,18.02601 18.02602,18.02601 9.9744,0 18.02602,-8.05162 18.02602,-18.02601 l 12.01735,0 0,-30.04337 -18.02602,-24.03469 z m -84.12143,63.09107 c -4.98719,0 -9.013,-4.02582 -9.013,-9.01301 0,-4.9872 4.02581,-9.01301 9.013,-9.01301 4.9872,0 9.01301,4.02581 9.01301,9.01301 0,4.98719 -4.02581,9.01301 -9.01301,9.01301 z m 81.11709,-54.07806 11.777,15.02168 -26.79868,0 0,-15.02168 15.02168,0 z m -9.01301,54.07806 c -4.9872,0 -9.01301,-4.02582 -9.01301,-9.01301 0,-4.9872 4.02581,-9.01301 9.01301,-9.01301 4.9872,0 9.01301,4.02581 9.01301,9.01301 0,4.98719 -4.02581,9.01301 -9.01301,9.01301 z"/><g id="g5013"><g id="g5006"><g style="fill:#fff;fill-opacity:1;stroke:none;stroke-opacity:1" id="layer1-0" clip-path="none" transform="matrix(0.14843052,0,0,0.14843052,194.87014,437.36859)"><g style="fill:#fff;fill-opacity:1;stroke:none;stroke-opacity:1" id="g4167" transform="matrix(0.85517241,0,0,0.85517241,197.80921,55.403009)"><rect id="rect4151" width="53.571" height="185" x="454.286" y="263.076" style="opacity:1;fill:#fff;fill-opacity:1;stroke:none;stroke-width:70;stroke-linejoin:miter;stroke-miterlimit:4;stroke-dasharray:none;stroke-opacity:1"/><path id="path4155" d="M 227.85714,325.21935 197.14286,287.3622 c 36.36885,-26.37334 68.46099,-53.00353 102.87527,-53.74492 23.13832,-0.49846 45.06611,7.15429 64.74964,26.1287 48.96913,59.06072 6.33473,144.04635 -38.3392,187.25908 l 101.78572,0.35714 0,47.85714 -225.71429,1e-5 0.35714,-49.28572 55.35715,-0.35714 c 10.48416,-9.71546 19.72815,-19.76696 28.59686,-30.17685 29.35758,-31.40625 52.33243,-85.67956 36.93264,-113.45321 -28.64188,-40.06572 -75.28248,5.89552 -95.88665,23.27292 z" style="fill:#fff;fill-opacity:1;fill-rule:evenodd;stroke:none;stroke-width:1px;stroke-linecap:butt;stroke-linejoin:miter;stroke-opacity:1"/><path id="path4165" d="m 288.57143,528.25506 c 51.55373,37.48304 115.53839,35.07867 150.71429,0.17857 l 21.01016,0.21107 0.0613,30.86036 c -54.69185,53.98989 -146.47247,44.99597 -194.46429,-0.35715 l -0.0893,-30.98213 z" style="fill:#fff;fill-opacity:1;fill-rule:evenodd;stroke:none;stroke-width:1px;stroke-linecap:butt;stroke-linejoin:miter;stroke-opacity:1"/></g></g></g></g></g></g></svg>