<svg height="325.087" viewBox="0 0 148.38 304.769" width="158.272" xmlns="http://www.w3.org/2000/svg"><g fill="#4caf50" transform="matrix(2.4717326 -1.1615636 1.1615636 2.4717326 -1253.40567 -951.0085)"><path d="m271.85714 569.21935h-18c-1.1 0-2 .9-2 2v9.1159c0 1.1.9.8841 2 .8841h18c1.1 0 2 .19381 2-.90619v-9.09381c0-1.1-.9-2-2-2zm-3.25226 4.19442-4.9028 4.884-2.04343-2.03809-8.12396.00022c.007-1.89852.009 1.12612.007-1.89852l8.93078.008 1.23484 1.23798 4.89995-4.88082 3.84372 3.81622-.003 2.70681z"/><path d="m270.7189 579.67173h-15.57546c-.95184 0-1.73061.22289-1.73061.4953v2.29684c0 .27241.77877.17962 1.73061.17962h15.57546c.95185 0 1.73727.0276 1.73655-.24483l-.006-2.23163c-.00072-.27241-.77876-.4953-1.73062-.4953z"/></g><g transform="matrix(2.3333333 0 0 2.3333333 5.52024 77.19935)"><path d="m0 0h24v24h-24z" fill="none"/><path d="m12 2c-5.52 0-10 4.48-10 10s4.48 10 10 10 10-4.48 10-10-4.48-10-10-10zm0 14.5c-2.49 0-4.5-2.01-4.5-4.5s2.01-4.5 4.5-4.5 4.5 2.01 4.5 4.5-2.01 4.5-4.5 4.5zm0-5.5c-.55 0-1 .45-1 1s.45 1 1 1 1-.45 1-1-.45-1-1-1z" fill="#e91e63"/></g><g transform="matrix(2.6175275 1.3295404 -1.3295404 2.6175275 62.71542 0)"><path d="m0 0h24v24h-24z" fill="none"/><path d="m12 11.55c-2.36-2.2-5.52-3.55-9-3.55v11c3.48 0 6.64 1.35 9 3.55 2.36-2.19 5.52-3.55 9-3.55v-11c-3.48 0-6.64 1.35-9 3.55z" fill="#2196f3"/></g><g transform="matrix(6.008673 0 0 6.008673 -8.5863 150.92094)"><path d="m0 0h24v24h-24z" fill="none"/></g><g transform="translate(-216.56909 -253.66513)"><path d="m338.33672 486.33017h-18.02602v-24.03469h-84.12142c-6.60955 0-12.01735 5.4078-12.01735 12.01734v66.09541h12.01735c0 9.97439 8.05162 18.02601 18.02601 18.02601 9.9744 0 18.02602-8.05162 18.02602-18.02601h36.05204c0 9.97439 8.05162 18.02601 18.02602 18.02601s18.02602-8.05162 18.02602-18.02601h12.01735v-30.04337zm-84.12143 63.09107c-4.98719 0-9.013-4.02582-9.013-9.01301 0-4.9872 4.02581-9.01301 9.013-9.01301 4.9872 0 9.01301 4.02581 9.01301 9.01301 0 4.98719-4.02581 9.01301-9.01301 9.01301zm81.11709-54.07806 11.777 15.02168h-26.79868v-15.02168zm-9.01301 54.07806c-4.9872 0-9.01301-4.02582-9.01301-9.01301 0-4.9872 4.02581-9.01301 9.01301-9.01301s9.01301 4.02581 9.01301 9.01301c0 4.98719-4.02581 9.01301-9.01301 9.01301z" fill="#ffcf57"/><g fill="#fff"><g fill="#fff" transform="matrix(.12693368551 0 0 .12693368551 224.23106390109 445.59208743543)"><path d="m454.286 263.076h53.571v185h-53.571z"/><g fill-rule="evenodd"><path d="m227.85714 325.21935-30.71428-37.85715c36.36885-26.37334 68.46099-53.00353 102.87527-53.74492 23.13832-.49846 45.06611 7.15429 64.74964 26.1287 48.96913 59.06072 6.33473 144.04635-38.3392 187.25908l101.78572.35714v47.85714l-225.71429.00001.35714-49.28572 55.35715-.35714c10.48416-9.71546 19.72815-19.76696 28.59686-30.17685 29.35758-31.40625 52.33243-85.67956 36.93264-113.45321-28.64188-40.06572-75.28248 5.89552-95.88665 23.27292z"/><path d="m288.57143 528.25506c51.55373 37.48304 115.53839 35.07867 150.71429.17857l21.01016.21107.0613 30.86036c-54.69185 53.98989-146.47247 44.99597-194.46429-.35715l-.0893-30.98213z"/></g></g></g></g></svg>