<?xml version="1.0" encoding="UTF-8" standalone="no"?>
<!-- Created with Inkscape (http://www.inkscape.org/) -->

<svg
   xmlns:dc="http://purl.org/dc/elements/1.1/"
   xmlns:cc="http://creativecommons.org/ns#"
   xmlns:rdf="http://www.w3.org/1999/02/22-rdf-syntax-ns#"
   xmlns:svg="http://www.w3.org/2000/svg"
   xmlns="http://www.w3.org/2000/svg"
   xmlns:sodipodi="http://sodipodi.sourceforge.net/DTD/sodipodi-0.dtd"
   xmlns:inkscape="http://www.inkscape.org/namespaces/inkscape"
   width="41.876118mm"
   height="86.012619mm"
   viewBox="0 0 148.37994 304.76912"
   id="svg4259"
   version="1.1"
   inkscape:version="0.91 r13725"
   sodipodi:docname="dsoft-clipart.svg">
  <defs
     id="defs4261" />
  <sodipodi:namedview
     id="base"
     pagecolor="#ffffff"
     bordercolor="#666666"
     borderopacity="1.0"
     inkscape:pageopacity="0.0"
     inkscape:pageshadow="2"
     inkscape:zoom="1.979899"
     inkscape:cx="4.0686143"
     inkscape:cy="172.71062"
     inkscape:document-units="px"
     inkscape:current-layer="layer1"
     showgrid="false"
     fit-margin-top="0"
     fit-margin-left="0"
     fit-margin-right="0"
     fit-margin-bottom="0"
     inkscape:window-width="1920"
     inkscape:window-height="1057"
     inkscape:window-x="-8"
     inkscape:window-y="-8"
     inkscape:window-maximized="1"
     showguides="false" />
  <metadata
     id="metadata4264">
    <rdf:RDF>
      <cc:Work
         rdf:about="">
        <dc:format>image/svg+xml</dc:format>
        <dc:type
           rdf:resource="http://purl.org/dc/dcmitype/StillImage" />
        <dc:title></dc:title>
      </cc:Work>
    </rdf:RDF>
  </metadata>
  <g
     inkscape:label="Calque 1"
     inkscape:groupmode="layer"
     id="layer1"
     transform="translate(-273.31218,-867.18556)">
    <g
       transform="translate(100.81911,456.65755)"
       id="g4850">
      <g
         style="fill:#4caf50;fill-opacity:1"
         transform="matrix(2.4717326,-1.1615636,1.1615636,2.4717326,-1080.9126,-540.48049)"
         id="g4213">
        <path
           style="fill:#4caf50;fill-opacity:1"
           inkscape:connector-curvature="0"
           d="m 271.85714,569.21935 -18,0 c -1.1,0 -2,0.9 -2,2 l 0,9.1159 c 0,1.1 0.9,0.8841 2,0.8841 l 18,0 c 1.1,0 2,0.19381 2,-0.90619 l 0,-9.09381 c 0,-1.1 -0.9,-2 -2,-2 z m -3.25226,4.19442 -4.9028,4.884 -2.04343,-2.03809 -8.12396,2.2e-4 c 0.007,-1.89852 0.009,1.12612 0.007,-1.89852 l 8.93078,0.008 1.23484,1.23798 4.89995,-4.88082 3.84372,3.81622 -0.003,2.70681 z"
           id="path4140"
           sodipodi:nodetypes="sssssssssccccccccccc" />
        <path
           style="fill:#4caf50;fill-opacity:1"
           inkscape:connector-curvature="0"
           d="m 270.7189,579.67173 -15.57546,0 c -0.95184,0 -1.73061,0.22289 -1.73061,0.4953 l 0,2.29684 c 0,0.27241 0.77877,0.17962 1.73061,0.17962 l 15.57546,0 c 0.95185,0 1.73727,0.0276 1.73655,-0.24483 l -0.006,-2.23163 c -7.2e-4,-0.27241 -0.77876,-0.4953 -1.73062,-0.4953 z"
           id="path4140-7"
           sodipodi:nodetypes="sssssssss" />
      </g>
      <g
         transform="matrix(2.3333333,0,0,2.3333333,178.01331,487.72736)"
         id="g4816"
         style="fill:#000000">
        <path
           style="fill:none"
           inkscape:connector-curvature="0"
           d="M 0,0 24,0 24,24 0,24 Z"
           id="path4806" />
        <path
           style="fill:#e91e63;fill-opacity:1"
           inkscape:connector-curvature="0"
           d="M 12,2 C 6.48,2 2,6.48 2,12 2,17.52 6.48,22 12,22 17.52,22 22,17.52 22,12 22,6.48 17.52,2 12,2 Z m 0,14.5 C 9.51,16.5 7.5,14.49 7.5,12 7.5,9.51 9.51,7.5 12,7.5 c 2.49,0 4.5,2.01 4.5,4.5 0,2.49 -2.01,4.5 -4.5,4.5 z M 12,11 c -0.55,0 -1,0.45 -1,1 0,0.55 0.45,1 1,1 0.55,0 1,-0.45 1,-1 0,-0.55 -0.45,-1 -1,-1 z"
           id="path4808" />
      </g>
      <g
         transform="matrix(2.6175275,1.3295404,-1.3295404,2.6175275,235.20849,410.52801)"
         id="g4864"
         style="fill:#000000">
        <path
           style="fill:none"
           inkscape:connector-curvature="0"
           d="M 0,0 24,0 24,24 0,24 Z"
           id="path4854" />
        <path
           style="fill:#2196f3;fill-opacity:1"
           sodipodi:nodetypes="ccccccc"
           inkscape:connector-curvature="0"
           d="M 12,11.55 C 9.64,9.35 6.48,8 3,8 l 0,11 c 3.48,0 6.64,1.35 9,3.55 C 14.36,20.36 17.52,19 21,19 L 21,8 c -3.48,0 -6.64,1.35 -9,3.55 z"
           id="path4856" />
      </g>
      <g
         clip-path="none"
         transform="matrix(6.008673,0,0,6.008673,163.90677,561.44895)"
         id="g4976"
         style="fill:#000000">
        <path
           style="fill:none"
           inkscape:connector-curvature="0"
           d="M 0,0 24,0 24,24 0,24 Z"
           id="path4966" />
      </g>
      <g
         transform="translate(-44.07602,156.86288)"
         id="g5063">
        <path
           id="path4968"
           d="m 338.33672,486.33017 -18.02602,0 0,-24.03469 -84.12142,0 c -6.60955,0 -12.01735,5.4078 -12.01735,12.01734 l 0,66.09541 12.01735,0 c 0,9.97439 8.05162,18.02601 18.02601,18.02601 9.9744,0 18.02602,-8.05162 18.02602,-18.02601 l 36.05204,0 c 0,9.97439 8.05162,18.02601 18.02602,18.02601 9.9744,0 18.02602,-8.05162 18.02602,-18.02601 l 12.01735,0 0,-30.04337 -18.02602,-24.03469 z m -84.12143,63.09107 c -4.98719,0 -9.013,-4.02582 -9.013,-9.01301 0,-4.9872 4.02581,-9.01301 9.013,-9.01301 4.9872,0 9.01301,4.02581 9.01301,9.01301 0,4.98719 -4.02581,9.01301 -9.01301,9.01301 z m 81.11709,-54.07806 11.777,15.02168 -26.79868,0 0,-15.02168 15.02168,0 z m -9.01301,54.07806 c -4.9872,0 -9.01301,-4.02582 -9.01301,-9.01301 0,-4.9872 4.02581,-9.01301 9.01301,-9.01301 4.9872,0 9.01301,4.02581 9.01301,9.01301 0,4.98719 -4.02581,9.01301 -9.01301,9.01301 z"
           inkscape:connector-curvature="0"
           style="fill:#ffcf57;fill-opacity:1;stroke:none;stroke-opacity:1" />
        <g
           id="g5013">
          <g
             id="g5006">
            <g
               transform="matrix(0.14843052,0,0,0.14843052,194.87014,437.36859)"
               id="layer1-0"
               inkscape:label="Calque 1"
               clip-path="none"
               style="fill:#ffffff;fill-opacity:1;stroke:none;stroke-opacity:1">
              <g
                 transform="matrix(0.85517241,0,0,0.85517241,197.80921,55.403009)"
                 id="g4167"
                 style="fill:#ffffff;fill-opacity:1;stroke:none;stroke-opacity:1">
                <rect
                   style="opacity:1;fill:#ffffff;fill-opacity:1;stroke:none;stroke-width:70;stroke-linejoin:miter;stroke-miterlimit:4;stroke-dasharray:none;stroke-opacity:1"
                   id="rect4151"
                   width="53.57143"
                   height="185"
                   x="454.28571"
                   y="263.07648" />
                <path
                   style="fill:#ffffff;fill-opacity:1;fill-rule:evenodd;stroke:none;stroke-width:1px;stroke-linecap:butt;stroke-linejoin:miter;stroke-opacity:1"
                   d="M 227.85714,325.21935 197.14286,287.3622 c 36.36885,-26.37334 68.46099,-53.00353 102.87527,-53.74492 23.13832,-0.49846 45.06611,7.15429 64.74964,26.1287 48.96913,59.06072 6.33473,144.04635 -38.3392,187.25908 l 101.78572,0.35714 0,47.85714 -225.71429,1e-5 0.35714,-49.28572 55.35715,-0.35714 c 10.48416,-9.71546 19.72815,-19.76696 28.59686,-30.17685 29.35758,-31.40625 52.33243,-85.67956 36.93264,-113.45321 -28.64188,-40.06572 -75.28248,5.89552 -95.88665,23.27292 z"
                   id="path4155"
                   inkscape:connector-curvature="0"
                   sodipodi:nodetypes="ccscccccccccc" />
                <path
                   style="fill:#ffffff;fill-opacity:1;fill-rule:evenodd;stroke:none;stroke-width:1px;stroke-linecap:butt;stroke-linejoin:miter;stroke-opacity:1"
                   d="m 288.57143,528.25506 c 51.55373,37.48304 115.53839,35.07867 150.71429,0.17857 l 21.01016,0.21107 0.0613,30.86036 c -54.69185,53.98989 -146.47247,44.99597 -194.46429,-0.35715 l -0.0893,-30.98213 z"
                   id="path4165"
                   inkscape:connector-curvature="0"
                   sodipodi:nodetypes="ccccccc" />
              </g>
            </g>
          </g>
        </g>
      </g>
    </g>
  </g>
</svg>
