<svg height="14.335" viewBox="0 0 22 13.439" width="23.467" xmlns="http://www.w3.org/2000/svg"><g fill="#4caf50" transform="translate(-251.85714 -569.21935)"><path d="m271.85714 569.21935h-18c-1.1 0-2 .9-2 2v9.1159c0 1.1.9.8841 2 .8841h18c1.1 0 2 .19381 2-.90619v-9.09381c0-1.1-.9-2-2-2zm-3.25226 4.19442-4.9028 4.884-2.04343-2.03809-8.12396.00022c.007-1.89852.009 1.12612.007-1.89852l8.93078.008 1.23484 1.23798 4.89995-4.88082 3.84372 3.81622-.003 2.70681z"/><path d="m270.7189 579.67173h-15.57546c-.95184 0-1.73061.22289-1.73061.4953v2.29684c0 .27241.77877.17962 1.73061.17962h15.57546c.95185 0 1.73727.0276 1.73655-.24483l-.006-2.23163c-.00072-.27241-.77876-.4953-1.73062-.4953z"/></g></svg>