<svg xmlns="http://www.w3.org/2000/svg" xmlns:svg="http://www.w3.org/2000/svg" id="svg4228" width="23.467" height="14.335" version="1.1" viewBox="0 0 22 13.439"><metadata id="metadata4233"/><g id="layer1" transform="translate(-480.42857,-811.3568)"><g id="g4213" transform="translate(228.57143,242.13745)" style="fill:#4caf50;fill-opacity:1"><path id="path4140" d="m 271.85714,569.21935 -18,0 c -1.1,0 -2,0.9 -2,2 l 0,9.1159 c 0,1.1 0.9,0.8841 2,0.8841 l 18,0 c 1.1,0 2,0.19381 2,-0.90619 l 0,-9.09381 c 0,-1.1 -0.9,-2 -2,-2 z m -3.25226,4.19442 -4.9028,4.884 -2.04343,-2.03809 -8.12396,2.2e-4 c 0.007,-1.89852 0.009,1.12612 0.007,-1.89852 l 8.93078,0.008 1.23484,1.23798 4.89995,-4.88082 3.84372,3.81622 -0.003,2.70681 z" style="fill:#4caf50;fill-opacity:1"/><path id="path4140-7" d="m 270.7189,579.67173 -15.57546,0 c -0.95184,0 -1.73061,0.22289 -1.73061,0.4953 l 0,2.29684 c 0,0.27241 0.77877,0.17962 1.73061,0.17962 l 15.57546,0 c 0.95185,0 1.73727,0.0276 1.73655,-0.24483 l -0.006,-2.23163 c -7.2e-4,-0.27241 -0.77876,-0.4953 -1.73062,-0.4953 z" style="fill:#4caf50;fill-opacity:1"/></g></g></svg>