<svg xmlns="http://www.w3.org/2000/svg" xmlns:svg="http://www.w3.org/2000/svg" id="svg2" width="283.429" height="331.185" version="1.1" viewBox="0 0 265.714 310.486"><metadata id="metadata7"/><g id="layer1" transform="translate(-366.40034,-255.16662)"><g style="fill:#f2f2f2" id="g4167" transform="matrix(0.85517241,0,0,0.85517241,197.80921,55.403009)"><rect id="rect4151" width="53.571" height="185" x="454.286" y="263.076" style="opacity:1;fill:#f2f2f2;fill-opacity:1;stroke:none;stroke-width:70;stroke-linejoin:miter;stroke-miterlimit:4;stroke-dasharray:none;stroke-opacity:1"/><path id="path4155" d="M 227.85714,325.21935 197.14286,287.3622 c 36.36885,-26.37334 68.46099,-53.00353 102.87527,-53.74492 23.13832,-0.49846 45.06611,7.15429 64.74964,26.1287 48.96913,59.06072 6.33473,144.04635 -38.3392,187.25908 l 101.78572,0.35714 0,47.85714 -225.71429,1e-5 0.35714,-49.28572 55.35715,-0.35714 c 10.48416,-9.71546 19.72815,-19.76696 28.59686,-30.17685 29.35758,-31.40625 52.33243,-85.67956 36.93264,-113.45321 -28.64188,-40.06572 -75.28248,5.89552 -95.88665,23.27292 z" style="fill:#f2f2f2;fill-opacity:1;fill-rule:evenodd;stroke:none;stroke-width:1px;stroke-linecap:butt;stroke-linejoin:miter;stroke-opacity:1"/><path id="path4165" d="m 288.57143,528.25506 c 51.55373,37.48304 115.53839,35.07867 150.71429,0.17857 l 21.01016,0.21107 0.0613,30.86036 c -54.69185,53.98989 -146.47247,44.99597 -194.46429,-0.35715 l -0.0893,-30.98213 z" style="fill:#f2f2f2;fill-opacity:1;fill-rule:evenodd;stroke:none;stroke-width:1px;stroke-linecap:butt;stroke-linejoin:miter;stroke-opacity:1"/></g></g></svg>