<svg height="331.185" viewBox="0 0 265.714 310.486" width="283.429" xmlns="http://www.w3.org/2000/svg"><g fill="#f2f2f2" transform="matrix(.85517241 0 0 .85517241 -168.59113 -199.763611)"><path d="m454.286 263.076h53.571v185h-53.571z"/><g fill-rule="evenodd"><path d="m227.85714 325.21935-30.71428-37.85715c36.36885-26.37334 68.46099-53.00353 102.87527-53.74492 23.13832-.49846 45.06611 7.15429 64.74964 26.1287 48.96913 59.06072 6.33473 144.04635-38.3392 187.25908l101.78572.35714v47.85714l-225.71429.00001.35714-49.28572 55.35715-.35714c10.48416-9.71546 19.72815-19.76696 28.59686-30.17685 29.35758-31.40625 52.33243-85.67956 36.93264-113.45321-28.64188-40.06572-75.28248 5.89552-95.88665 23.27292z"/><path d="m288.57143 528.25506c51.55373 37.48304 115.53839 35.07867 150.71429.17857l21.01016.21107.0613 30.86036c-54.69185 53.98989-146.47247 44.99597-194.46429-.35715l-.0893-30.98213z"/></g></g></svg>