<svg height="107.356" viewBox="0 0 100.646 100.646" width="107.356" xmlns="http://www.w3.org/2000/svg"><path d="m220.35106 385.8273c0-1.48212 0-1.48212-1.48211-1.48212h-62.24897c-1.48212 0-1.48212 0-1.48212 1.48212v29.64236h2.22318c-1.2272 0-2.22318.99599-2.22318 2.22318s.99598 2.22318 2.22318 2.22318h-2.22318v28.16025c0 1.48211 0 1.48211 1.48212 1.48211h62.24897c1.48211 0 1.48211 0 1.48211-1.48211v-28.16025c-1.13826 0-2.22317 0-2.22317 0 1.22719 0 2.22317-.99599 2.22317-2.22318s-.99598-2.22318-2.22317-2.22318h2.22317zm-8.15165 38.53507c1.22868 0 2.22318.9945 2.22318 2.22318s-.9945 2.22318-2.22318 2.22318c-1.22867 0-2.22317-.9945-2.22317-2.22318s.9945-2.22318 2.22317-2.22318zm-46.68672 8.89271h-1.48212v1.48212c0 1.48212 0 1.48212-1.48212 1.48212s-1.48212 0-1.48212-1.48212v-1.48212h-1.48212c-1.48211 0-1.48211 0-1.48211-1.48212 0-1.48211 0-1.48211 1.48211-1.48211h1.48212v-1.48212c0-1.48212 0-1.48212 1.48212-1.48212s1.48212 0 1.48212 1.48212v1.48212h1.48212c1.48212 0 1.48212 0 1.48212 1.48211 0 1.48212 0 1.48212-1.48212 1.48212zm37.05295 11.85695h-29.64236v-22.23178h29.64236zm0-34.08872h-29.64236v-22.23178h29.64236zm5.18742 35.57084c-.40907 0-.74106-.332-.74106-.74106 0-.40907.33199-.74106.74106-.74106.40906 0 .74106.33199.74106.74106 0 .40906-.332.74106-.74106.74106zm0-2.96424c-.40907 0-.74106-.33199-.74106-.74106 0-.40906.33199-.74106.74106-.74106.40906 0 .74106.332.74106.74106 0 .40907-.332.74106-.74106.74106zm0-10.37483c-1.22868 0-2.22318-.9945-2.22318-2.22317 0-1.22868.9945-2.22318 2.22318-2.22318 1.22867 0 2.22318.9945 2.22318 2.22318 0 1.22867-.99451 2.22317-2.22318 2.22317zm4.44635 4.44636c-1.22867 0-2.22317-.9945-2.22317-2.22318s.9945-2.22318 2.22317-2.22318c1.22868 0 2.22318.9945 2.22318 2.22318s-.9945 2.22318-2.22318 2.22318zm6.66954-6.66953c0 1.22867-.99451 2.22317-2.22318 2.22317-1.22868 0-2.22318-.9945-2.22318-2.22317 0-1.22868.9945-2.22318 2.22318-2.22318 1.22867 0 2.22318.9945 2.22318 2.22318z" fill="#ededed" transform="translate(-137.42132 -366.62864)"/></svg>