<?xml version="1.0" encoding="UTF-8" standalone="no"?>
<!-- Created with Inkscape (http://www.inkscape.org/) -->

<svg
   xmlns:dc="http://purl.org/dc/elements/1.1/"
   xmlns:cc="http://creativecommons.org/ns#"
   xmlns:rdf="http://www.w3.org/1999/02/22-rdf-syntax-ns#"
   xmlns:svg="http://www.w3.org/2000/svg"
   xmlns="http://www.w3.org/2000/svg"
   xmlns:sodipodi="http://sodipodi.sourceforge.net/DTD/sodipodi-0.dtd"
   xmlns:inkscape="http://www.inkscape.org/namespaces/inkscape"
   width="28.404613mm"
   height="28.404613mm"
   viewBox="0 0 100.64627 100.64627"
   id="svg4190"
   version="1.1"
   inkscape:version="0.91 r13725"
   sodipodi:docname="nds.svg">
  <defs
     id="defs4192" />
  <sodipodi:namedview
     id="base"
     pagecolor="#ffffff"
     bordercolor="#666666"
     borderopacity="1.0"
     inkscape:pageopacity="0.0"
     inkscape:pageshadow="2"
     inkscape:zoom="3.959798"
     inkscape:cx="7.991015"
     inkscape:cy="53.453614"
     inkscape:document-units="px"
     inkscape:current-layer="layer1"
     showgrid="false"
     fit-margin-top="5"
     fit-margin-left="5"
     fit-margin-right="5"
     fit-margin-bottom="5"
     inkscape:window-width="1920"
     inkscape:window-height="1057"
     inkscape:window-x="-8"
     inkscape:window-y="-8"
     inkscape:window-maximized="1" />
  <metadata
     id="metadata4195">
    <rdf:RDF>
      <cc:Work
         rdf:about="">
        <dc:format>image/svg+xml</dc:format>
        <dc:type
           rdf:resource="http://purl.org/dc/dcmitype/StillImage" />
        <dc:title></dc:title>
      </cc:Work>
    </rdf:RDF>
  </metadata>
  <g
     inkscape:label="Calque 1"
     inkscape:groupmode="layer"
     id="layer1"
     transform="translate(-137.42132,-366.62864)">
    <path
       d="m 220.35106,385.8273 c 0,-1.48212 0,-1.48212 -1.48211,-1.48212 l -62.24897,0 c -1.48212,0 -1.48212,0 -1.48212,1.48212 l 0,29.64236 2.22318,0 c -1.2272,0 -2.22318,0.99599 -2.22318,2.22318 0,1.22719 0.99598,2.22318 2.22318,2.22318 l -2.22318,0 0,28.16025 c 0,1.48211 0,1.48211 1.48212,1.48211 l 62.24897,0 c 1.48211,0 1.48211,0 1.48211,-1.48211 l 0,-28.16025 c -1.13826,0 -2.22317,0 -2.22317,0 1.22719,0 2.22317,-0.99599 2.22317,-2.22318 0,-1.22719 -0.99598,-2.22318 -2.22317,-2.22318 0,0 1.08491,0 2.22317,0 l 0,-29.64236 z m -8.15165,38.53507 c 1.22868,0 2.22318,0.9945 2.22318,2.22318 0,1.22868 -0.9945,2.22318 -2.22318,2.22318 -1.22867,0 -2.22317,-0.9945 -2.22317,-2.22318 0,-1.22868 0.9945,-2.22318 2.22317,-2.22318 z m -46.68672,8.89271 -1.48212,0 0,1.48212 c 0,1.48212 0,1.48212 -1.48212,1.48212 -1.48212,0 -1.48212,0 -1.48212,-1.48212 l 0,-1.48212 -1.48212,0 c -1.48211,0 -1.48211,0 -1.48211,-1.48212 0,-1.48211 0,-1.48211 1.48211,-1.48211 l 1.48212,0 0,-1.48212 c 0,-1.48212 0,-1.48212 1.48212,-1.48212 1.48212,0 1.48212,0 1.48212,1.48212 l 0,1.48212 1.48212,0 c 1.48212,0 1.48212,0 1.48212,1.48211 0,1.48212 0,1.48212 -1.48212,1.48212 z m 37.05295,11.85695 -29.64236,0 0,-22.23178 29.64236,0 0,22.23178 z m 0,-34.08872 -29.64236,0 0,-22.23178 29.64236,0 0,22.23178 z m 5.18742,35.57084 c -0.40907,0 -0.74106,-0.332 -0.74106,-0.74106 0,-0.40907 0.33199,-0.74106 0.74106,-0.74106 0.40906,0 0.74106,0.33199 0.74106,0.74106 0,0.40906 -0.332,0.74106 -0.74106,0.74106 z m 0,-2.96424 c -0.40907,0 -0.74106,-0.33199 -0.74106,-0.74106 0,-0.40906 0.33199,-0.74106 0.74106,-0.74106 0.40906,0 0.74106,0.332 0.74106,0.74106 0,0.40907 -0.332,0.74106 -0.74106,0.74106 z m 0,-10.37483 c -1.22868,0 -2.22318,-0.9945 -2.22318,-2.22317 0,-1.22868 0.9945,-2.22318 2.22318,-2.22318 1.22867,0 2.22318,0.9945 2.22318,2.22318 0,1.22867 -0.99451,2.22317 -2.22318,2.22317 z m 4.44635,4.44636 c -1.22867,0 -2.22317,-0.9945 -2.22317,-2.22318 0,-1.22868 0.9945,-2.22318 2.22317,-2.22318 1.22868,0 2.22318,0.9945 2.22318,2.22318 0,1.22868 -0.9945,2.22318 -2.22318,2.22318 z m 6.66954,-6.66953 c 0,1.22867 -0.99451,2.22317 -2.22318,2.22317 -1.22868,0 -2.22318,-0.9945 -2.22318,-2.22317 0,-1.22868 0.9945,-2.22318 2.22318,-2.22318 1.22867,0 2.22318,0.9945 2.22318,2.22318 z"
       id="Nintendo_DS"
       inkscape:connector-curvature="0"
       style="fill:#ededed;fill-opacity:1" />
  </g>
</svg>
