<svg version="1" xmlns="http://www.w3.org/2000/svg" width="882.667" height="882.667" viewBox="0 0 662.000000 662.000000"><path d="M221.5 1.1c-2.2.4-6 1.1-8.5 1.4-4.4.7-7.2 1.4-21 5.7-13 4.1-43.3 18.9-55 26.9-1.4.9-8.1 5.4-15 9.9-12.1 8-39 26.8-40 28-.3.3-2.7 2.2-5.5 4.1-2.7 1.8-5.5 3.9-6.1 4.5-.7.6-4.7 3.5-8.9 6.5s-8.9 6.5-10.6 7.9L48 98.5l2.3 2.5c1.2 1.4 6.1 7.2 10.7 13s8.9 11 9.5 11.6c.5.7 2.1 2.6 3.5 4.4 1.4 1.8 3 3.7 3.5 4.4.6.6 2.6 3.1 4.5 5.6 1.9 2.5 3.7 4.7 4 5 .3.3 3.1 3.6 6.2 7.5 4.9 6.2 6.9 8.7 10.8 13.3.9 1 2.8-.3 8.8-5.5 10.5-9.1 10.7-9.3 19.2-16.3 4.1-3.4 8.4-7 9.5-7.9 1.1-.9 4.2-3.2 7-5.1 2.7-1.9 5.6-4.1 6.5-4.9 6.5-6.2 37.6-23.2 47.5-26.1 14.6-4.2 24.9-5.3 35.5-3.6 5.5.9 11.2 2.5 12.4 3.7.6.5 1.8.9 2.8.9 1 0 1.8.3 1.8.8 0 .4 1.3 1.3 2.9 2 3.9 1.7 15.2 12.1 19.5 18 1.9 2.6 4.1 6.5 4.9 8.7.8 2.2 1.8 4.9 2.3 6 1.2 3.2 1.3 3.6 2.7 12 1.9 11.6 1.4 28.9-1.4 43-.6 2.7-1.2 6.1-1.5 7.5-.2 1.4-.7 3.2-1 4-.3.8-.8 2.5-1 3.8-.6 3-5.6 18.1-8.6 26.2-6.1 16-16 35.4-26.9 52.9-3.3 5.1-5.9 9.7-5.9 10.1 0 .5-.4 1-.8 1.2-.5.1-2.6 2.8-4.8 5.8-4.1 5.8-13.9 18.4-16.4 21-1.4 1.5-9.4 10.6-14 16-7 8.2-18.3 20.2-30.5 32.5l-14 14-50 .3c-27.4.2-50.2.5-50.5.8-.3.3-.6 9.2-.7 19.7-.1 10.6-.2 30.4-.3 44.2l-.2 25 205.6.3 205.6.2v-43.5c0-23.9-.3-43.5-.7-43.6-.5 0-41.9-.2-92.2-.4-50.2-.2-91.5-.5-91.6-.7-.2-.2 4-4.8 9.3-10.4 37.1-38.7 67.4-87.6 84.3-136.1 2.8-8.2 8.4-27.6 9.3-32.3.2-1.4.5-2.5.6-2.5.1 0 .3-1.2.5-2.8.2-1.5.8-5.1 1.4-8 1.9-9.6 2.4-17.1 2.5-36.2 0-19.3-.4-24.2-3-37.5-1.8-9.2-6.2-24.2-7.5-25.5-.5-.5-.9-1.7-.9-2.7 0-2.3-14-29.8-15.2-29.8-.4 0-.8-.6-.8-1.4 0-.8-.3-1.6-.7-1.8-.5-.2-2.3-2.6-4.2-5.3-6.4-9.4-24.5-25.3-38.1-33.4-4.4-2.6-15.3-8.5-16-8.6-.3 0-2.1-.8-4-1.7-4.7-2.2-20-7.5-23.6-8.2-1.6-.2-4-.7-5.4-1.1-10.4-2.3-13.1-2.6-31-2.9-9.1-.2-18.3 0-20.5.5zM521 53.8l-4.5.3V391H614V54l-2.2-.1c-7.1-.2-87-.4-90.8-.1zM173.6 537.9c-.3.4-.5 13.2-.5 28.2l.1 27.4 2.7 2.5c5.7 5.2 9.7 8.6 13.1 11 1.9 1.3 4.1 3 4.9 3.8 1.5 1.4 16.3 11.2 22 14.5 5.3 3 26.1 13.6 26.5 13.4.3-.2 9.5 3.7 12.8 5.4 1 .5 2.6.9 3.6.9s2.2.4 2.8.9c1.1 1.2 23.5 7.7 32.9 9.6 1.1.2 3.4.6 5 1 6.3 1.2 15.1 2.7 18 3 1.7.2 6.4.7 10.5 1.2 9 1 42.6 1 53 .1 6.7-.7 17.9-2.2 22-3.1.8-.2 3.8-.8 6.5-1.2 5.7-1 6.4-1.2 6.8-1.5.1-.1.9-.3 1.9-.5 5-1 21.7-6.3 30.8-9.8 16.5-6.3 37-17.3 50.5-26.9 4.9-3.5 19-15.1 23-18.9l5-4.8-.1-27.5c0-15.1-.3-27.8-.6-28.2-.4-.3-8.9-.7-19-.7l-18.4-.2-7.5 6.6c-6.4 5.6-16.3 12.9-22.1 16.4-12.4 7.4-33.2 16.3-44.5 19-1 .3-5.6 1.4-10.3 2.5-8.7 2.2-9.9 2.4-21 3.7-8.6 1-37.7 1-46.5 0-12.2-1.5-17.2-2.3-21.9-3.4-2.3-.5-10-2.2-13.1-2.8-3.8-.8-23-7.3-30.9-10.4-4.4-1.8-13.6-6.1-20.5-9.7-14.5-7.4-13.5-6.9-26.6-15.5l-10-6.5-20.2-.2c-11.1-.1-20.4.2-20.7.7z"/></svg>